# AST/ASF file generated using VICON BodyLanguage
# -----------------------------------------------
:version 1.10
:name VICON
:units
  mass 1.0
  length 0.45
  angle deg
:documentation
   .ast/.asf automatically generated from VICON data using
   VICON BodyBuilder and BodyLanguage model FoxedUp or BRILLIANT.MOD
:root
   order TX TY TZ RX RY RZ
   axis XYZ
   position 0 0 0  
   orientation 0 -0 0 
:bonedata
  begin
     id 1 
     name lhipjoint
     direction 0.500677 -0.737119 0.453848 
     length 2.34727 
     axis 0 -0 0  XYZ
  end
  begin
     id 2 
     name lfemur
     direction 0.34202 -0.939693 0  
     length 7.53653  
     axis 0 -0 20  XYZ
    dof rx ry rz
    limits (-160.0 20.0)
           (-70.0 70.0)
           (-60.0 70.0)
  end
  begin
     id 3 
     name ltibia
     direction 0.34202 -0.939693 0   
     length 6.85572   
     axis 0 -0 20   XYZ
    dof rx
    limits (-10.0 170.0)
  end
  begin
     id 4 
     name lfoot
     direction 0.155313 -0.426718 0.890949   
     length 2.18324   
     axis -90 -1.13533e-015 20   XYZ
    dof rx rz
    limits (-45.0 90.0)
           (-70.0 20.0)
  end
  begin
     id 5 
     name ltoes
     direction 1.53474e-011 -4.21647e-011 1   
     length 1.06748   
     axis -90 -1.13533e-015 20   XYZ
    dof rx
    limits (-90.0 20.0)
  end
  begin
     id 6 
     name rhipjoint
     direction -0.632471 -0.659587 0.406111   
     length 2.62319  
     axis 0 -0 0  XYZ 
  end
  begin
     id 7 
     name rfemur
     direction -0.34202 -0.939693 0   
     length 7.21735   
     axis 0 -0 -20   XYZ
    dof rx ry rz
    limits (-160.0 20.0)
           (-70.0 70.0)
           (-70.0 60.0)
  end
  begin
     id 8 
     name rtibia
     direction -0.34202 -0.939693 0   
     length 7.02558   
     axis 0 -0 -20   XYZ
    dof rx
    limits (-10.0 170.0)
 end
 begin
     id 9 
     name rfoot
     direction -0.16057 -0.441164 0.882945   
     length 2.10014  
     axis -90 1.13533e-015 -20   XYZ
    dof rx rz
    limits (-45.0 90.0)
           (-20.0 70.0)
  end
  begin
     id 10 
     name rtoes
     direction -1.53553e-011 -4.2192e-011 1   
     length 1.02554   
     axis -90 1.13533e-015 -20   XYZ
    dof rx
    limits (-90.0 20.0)
  end
  begin
     id 11 
     name lowerback
     direction 0.0401429 0.998861 -0.0258085   
     length 1.80848   
     axis 0 -0 0   XYZ
    dof rx ry rz
    limits (-20.0 45.0)
           (-30.0 30.0)
           (-30.0 30.0)
  end
  begin
     id 12 
     name upperback
     direction -0.0130978 0.999914 -0.000352645   
     length 1.8116   
     axis 0 -0 0   XYZ
    dof rx ry rz
    limits (-20.0 45.0)
           (-30.0 30.0)
           (-30.0 30.0)
  end
  begin
     id 13 
     name thorax
     direction -0.0300198 0.999453 0.0138573   
     length 1.81778   
     axis 0 -0 0   XYZ
    dof rx ry rz
    limits (-20.0 45.0)
           (-30.0 30.0)
           (-30.0 30.0)
  end
  begin
     id 14 
     name lowerneck
     direction -0.0401726 0.999191 -0.00173647   
     length 2.10594   
     axis 0 -0 0   XYZ
    dof rx ry rz
    limits (-20.0 45.0)
           (-30.0 30.0)
           (-30.0 30.0)
  end
  begin
     id 15 
     name upperneck
     direction 0.0119835 0.998501 0.0534085   
     length 2.07325   
     axis 0 -0 0   XYZ
    dof rx ry rz
    limits (-20.0 45.0)
           (-30.0 30.0)
           (-30.0 30.0)
  end
  begin
     id 16
     name head
     direction 0.00628309 0.999826 0.0175921  
     length 2.15096  
     axis 0 -0 0   XYZ
    dof rx ry rz
    limits (-20.0 45.0)
           (-30.0 30.0)
           (-30.0 30.0)
  end
  begin
     id 17 
     name lclavicle
     direction 0.895501 0.429681 -0.115981  
     length 4.18092  
     axis 0 -0 0   XYZ
    dof ry rz
    limits (-20.0 10.0)
           (0.0 20.0)
  end
  begin
     id 18 
     name lhumerus
     direction 1 -4.48961e-011 -3.38433e-028   
     length 5.77237   
     axis 180 -30 -90   XYZ
    dof rx ry rz
    limits (-60.0 90.0)
           (-90.0 90.0)
           (-90.0 90.0)
  end
  begin
     id 19
     name lradius
     direction 1 -4.4901e-011 1.11983e-026   
     length 2.91878   
     axis 180 -30 -90   XYZ
    dof rx
    limits (-10.0 170.0)
  end
  begin
     id 20
     name lwrist
     direction 1 -4.48934e-011 1.88176e-026   
     length 1.45939   
     axis -1.23311e-014 90 90   XYZ
    dof ry
    limits (-180.0 0.0)
 end
  begin
     id 21 
     name lhand
     direction 1 -4.4895e-011 3.76352e-026   
     length 1.06566   
     axis -2.40147e-014 90 90   XYZ
    dof rx rz
    limits (-90.0 90.0)
           (-45.0 45.0)
  end
  begin
     id 22 
     name lfingers
     direction 1 -4.49005e-011 7.52705e-026   
     length 0.859162   
     axis -4.80295e-014 90 90   XYZ
    dof rx
    limits (0.0 90.0)
  end
  begin
     id 23
     name lthumb
     direction 0.707107 -6.34885e-011 0.707107   
     length 1.23359   
     axis -90 45 -9.86935e-015   XYZ
    dof rx rz
    limits (-45.0 45.0)
           (-45.0 45.0)
  end
  begin
     id 24 
     name rclavicle
     direction -0.91006 0.40451 -0.0903492   
     length 4.23293  
     axis 0 -0 0   XYZ 
    dof ry rz
    limits (-10.0 20.0)
           (-20.0 0.0)
  end
  begin
     id 25 
     name rhumerus
     direction -1 -4.4897e-011 1.7415e-027  
     length 5.49854   
     axis 180 30 90   XYZ
    dof rx ry rz
    limits (-90.0 60.0)
           (-90.0 90.0)
           (-90.0 90.0)
  end
  begin
     id 26 
     name rradius
     direction -1 -4.48963e-011 1.21259e-026   
     length 3.1186   
     axis 180 30 90   XYZ
    dof rx
    limits (-10.0 170.0)
  end
  begin
     id 27 
     name rwrist
     direction -1 -4.48967e-011 1.88176e-026   
     length 1.5593   
     axis -1.23311e-014 -90 -90   XYZ
    dof ry
    limits (-180.0 0.0)
  end
  begin
     id 28
     name rhand
     direction -1 -4.4895e-011 3.76352e-026   
     length 0.71207   
     axis -2.40147e-014 -90 -90   XYZ
    dof rx rz
    limits (-90.0 90.0)
           (-45.0 45.0)
  end
  begin
     id 29
     name rfingers
     direction -1 -4.49005e-011 7.52705e-026   
     length 0.574089   
     axis -4.80295e-014 -90 -90   XYZ
    dof rx
    limits (0.0 90.0)
  end
  begin
     id 30
     name rthumb
     direction -0.707107 -6.34982e-011 0.707107   
     length 0.824281   
     axis -90 -45 9.86935e-015   XYZ
    dof rx rz
    limits (-45.0 45.0)
           (-45.0 45.0)
  end
:hierarchy
  begin
    root lhipjoint rhipjoint lowerback
    lhipjoint lfemur
    lfemur ltibia
    ltibia lfoot
    lfoot ltoes
    rhipjoint rfemur
    rfemur rtibia
    rtibia rfoot
    rfoot rtoes
    lowerback upperback
    upperback thorax
    thorax lowerneck lclavicle rclavicle
    lowerneck upperneck
    upperneck head
    lclavicle lhumerus
    lhumerus lradius
    lradius lwrist
    lwrist lhand lthumb
    lhand lfingers
    rclavicle rhumerus
    rhumerus rradius
    rradius rwrist
    rwrist rhand rthumb
    rhand rfingers
  end

#!OML:ASF C:\ViconDB\ViconDB\414\Spring2016\042216\male.ASF
:FULLY-SPECIFIED
:DEGREES
373
root 19.9726 18.0017 7.10606 -188.266 -39.1597 -165.477
lowerback 4.08422 -3.27537 6.04357
upperback 0.234713 -4.10233 -0.200157
thorax -2.48482 -2.11962 -3.31893
lowerneck 5.21316 -5.08976 -10.421
upperneck -7.72936 -7.10723 8.55494
head -2.44782 -3.62759 4.49791
rclavicle -7.82218e-014 -1.27222e-014
rhumerus -3.24817 -11.1858 -30.6671
rradius 73.3312
rwrist 3.99051
rhand 1.21037 -31.1936
rfingers 7.12502
rthumb 26.7492 -59.3226
lclavicle -7.82218e-014 -1.27222e-014
lhumerus -41.6436 28.6223 27.0079
lradius 66.9311
lwrist 34.4283
lhand -33.1379 14.4932
lfingers 7.12502
lthumb -6.34735 44.3781
rfemur -32.339 13.237 18.2682
rtibia 76.6622
rfoot -4.14961 -8.86218
rtoes -20.6332
lfemur -0.542338 4.41998 -13.9441
ltibia 25.3164
lfoot -14.444 13.8218
ltoes -24.5964
374
root 20.0753 17.8881 7.09504 -187.842 -39.9032 -165.705
lowerback 3.71202 -3.28553 5.71884
upperback 0.262501 -4.15667 -0.426126
thorax -2.2469 -2.13642 -3.39057
lowerneck 5.24136 -4.28413 -10.0926
upperneck -8.43425 -6.00067 8.48131
head -2.78177 -3.08381 4.42741
rclavicle 1.58481e-013 4.92986e-014
rhumerus -3.39033 -10.8993 -31.6769
rradius 74.8833
rwrist 4.22322
rhand 1.15789 -31.4282
rfingers 7.12502
rthumb 26.699 -59.5649
lclavicle 1.58481e-013 4.92986e-014
lhumerus -42.5824 28.9821 28.1492
lradius 66.6396
lwrist 34.4311
lhand -32.9281 14.4333
lfingers 7.12502
lthumb -6.14482 44.3242
rfemur -33.3122 13.8874 16.6735
rtibia 78.6915
rfoot -4.22017 -9.35541
rtoes -20.2952
lfemur 0.145063 3.78503 -14.2708
ltibia 23.4775
lfoot -18.0946 14.7706
ltoes -24.0164
375
root 20.1769 17.7678 7.09397 -187.353 -40.6956 -165.989
lowerback 3.49158 -3.34081 5.36987
upperback 0.304433 -4.26063 -0.618971
thorax -2.08004 -2.18018 -3.40286
lowerneck 5.06523 -3.46539 -9.77068
upperneck -9.12567 -4.88004 8.17412
head -3.08299 -2.5227 4.27055
rclavicle -1.44119e-014 -2.70347e-014
rhumerus -3.51658 -10.5473 -32.9392
rradius 76.3807
rwrist 4.6243
rhand 1.10044 -31.4984
rfingers 7.12502
rthumb 26.644 -59.6435
lclavicle -1.44119e-014 -2.70347e-014
lhumerus -43.61 29.5334 29.438
lradius 66.3975
lwrist 34.1943
lhand -32.8859 14.4565
lfingers 7.12502
lthumb -6.1041 44.3486
rfemur -34.4693 14.1851 15.0944
rtibia 80.9884
rfoot -4.11833 -9.72244
rtoes -20.1154
lfemur 0.0280265 2.8659 -14.5201
ltibia 23.0333
lfoot -21.0482 15.2591
ltoes -23.3551
376
root 20.2883 17.6378 7.1115 -187.055 -41.6512 -166.105
lowerback 3.58465 -3.44747 5.11901
upperback 0.339291 -4.40892 -0.676187
thorax -2.09658 -2.25172 -3.3077
lowerneck 5.11568 -2.56619 -9.60135
upperneck -10.0606 -3.69337 7.75502
head -3.49495 -1.9223 4.10398
rclavicle 1.12313e-013 -2.70347e-014
rhumerus -3.9885 -10.0646 -34.2458
rradius 78.0927
rwrist 5.05224
rhand 1.03793 -31.5521
rfingers 7.12502
rthumb 26.5842 -59.7062
lclavicle 1.12313e-013 -2.70347e-014
lhumerus -44.6031 30.2752 30.9145
lradius 65.8176
lwrist 33.5106
lhand -33.0302 14.063
lfingers 7.12502
lthumb -6.2434 43.951
rfemur -35.6026 14.3407 13.5855
rtibia 83.5994
rfoot -4.52423 -9.89538
rtoes -19.6325
lfemur -0.885855 1.46337 -14.6165
ltibia 24.0075
lfoot -23.6508 15.6898
ltoes -22.8352
377
root 20.4267 17.5022 7.14045 -186.897 -42.9315 -166.115
lowerback 3.96609 -3.68307 4.76018
upperback 0.47857 -4.72152 -0.659849
thorax -2.16591 -2.40366 -3.05006
lowerneck 4.66121 -1.6694 -9.36442
upperneck -10.7268 -2.50973 6.99073
head -3.74371 -1.30517 3.79381
rclavicle -4.8901e-014 3.18055e-015
rhumerus -4.40902 -9.63658 -35.8322
rradius 79.6731
rwrist 5.64594
rhand 0.839885 -31.2453
rfingers 7.12502
rthumb 26.3946 -59.428
lclavicle -4.8901e-014 3.18055e-015
lhumerus -45.2318 31.397 32.5238
lradius 64.742
lwrist 32.881
lhand -33.4641 13.6836
lfingers 7.12502
lthumb -6.6623 43.5588
rfemur -36.8409 13.9213 12.3075
rtibia 86.5486
rfoot -4.80277 -9.92932
rtoes -19.168
lfemur -2.47398 0.554969 -14.4383
ltibia 26.1429
lfoot -26.5864 15.3466
ltoes -22.4256
